<svg width="14" height="14" viewBox="0 0 14 14" fill="none" xmlns="http://www.w3.org/2000/svg">
<path d="M5.46875 3.9375C5.5895 3.9375 5.6875 3.8395 5.6875 3.71875V1.09375C5.6875 0.973 5.5895 0.875 5.46875 0.875C5.348 0.875 5.25 0.973 5.25 1.09375V3.71875C5.25 3.8395 5.348 3.9375 5.46875 3.9375Z" fill="#0B1719"/>
<path d="M4.15625 3.9375C4.277 3.9375 4.375 3.8395 4.375 3.71875V1.09375C4.375 0.973 4.277 0.875 4.15625 0.875C4.0355 0.875 3.9375 0.973 3.9375 1.09375V3.71875C3.9375 3.8395 4.0355 3.9375 4.15625 3.9375Z" fill="#0B1719"/>
<path d="M6.78125 0.875C6.6605 0.875 6.5625 0.973 6.5625 1.09375V3.9375C6.5625 4.67819 6.09394 5.341 5.39612 5.58775C5.28719 5.62625 5.22987 5.74262 5.26094 5.85244C5.25612 5.87038 5.25 5.88744 5.25 5.90625V12.25C5.25 12.4911 5.05356 12.6875 4.8125 12.6875C4.57144 12.6875 4.375 12.4911 4.375 12.25V5.90625C4.375 5.88963 4.36888 5.87519 4.36581 5.85988C4.40081 5.74831 4.34262 5.628 4.23106 5.58862C3.53194 5.34231 3.0625 4.67863 3.0625 3.9375V1.09375C3.0625 0.973 2.9645 0.875 2.84375 0.875C2.723 0.875 2.625 0.973 2.625 1.09375V3.9375C2.625 4.80944 3.14825 5.5895 3.9375 5.93556V12.25C3.9375 12.7326 4.32994 13.125 4.8125 13.125C5.29506 13.125 5.6875 12.7326 5.6875 12.25V5.93556C6.47675 5.5895 7 4.80944 7 3.9375V1.09375C7 0.973 6.902 0.875 6.78125 0.875Z" fill="#0B1719"/>
<path d="M9.99775 0.875C9.55106 0.875 9.16344 1.19306 9.07594 1.63056L8.0885 6.56687C8.02419 6.88931 8.10688 7.2205 8.31513 7.47469C8.52338 7.72887 8.83181 7.875 9.16081 7.875H9.40625C9.527 7.875 9.625 7.777 9.625 7.65625C9.625 7.5355 9.527 7.4375 9.40625 7.4375H9.16081C8.9635 7.4375 8.77844 7.35 8.65331 7.19731C8.52819 7.04463 8.47875 6.84644 8.51725 6.65263L9.50425 1.71631C9.5515 1.48225 9.75888 1.3125 9.99775 1.3125C10.2747 1.3125 10.5 1.53781 10.5 1.81475V12.25C10.5 12.4911 10.3036 12.6875 10.0625 12.6875C9.82144 12.6875 9.625 12.4911 9.625 12.25V8.96875C9.625 8.848 9.527 8.75 9.40625 8.75C9.2855 8.75 9.1875 8.848 9.1875 8.96875V12.25C9.1875 12.7326 9.57994 13.125 10.0625 13.125C10.5451 13.125 10.9375 12.7326 10.9375 12.25V1.81475C10.9375 1.29675 10.5158 0.875 9.99775 0.875Z" fill="#0B1719"/>
<path d="M5.46875 3.9375C5.5895 3.9375 5.6875 3.8395 5.6875 3.71875V1.09375C5.6875 0.973 5.5895 0.875 5.46875 0.875C5.348 0.875 5.25 0.973 5.25 1.09375V3.71875C5.25 3.8395 5.348 3.9375 5.46875 3.9375Z" fill="#0B1719"/>
<path d="M4.15625 3.9375C4.277 3.9375 4.375 3.8395 4.375 3.71875V1.09375C4.375 0.973 4.277 0.875 4.15625 0.875C4.0355 0.875 3.9375 0.973 3.9375 1.09375V3.71875C3.9375 3.8395 4.0355 3.9375 4.15625 3.9375Z" fill="#0B1719"/>
<path d="M6.78125 0.875C6.6605 0.875 6.5625 0.973 6.5625 1.09375V3.9375C6.5625 4.67819 6.09394 5.341 5.39612 5.58775C5.28719 5.62625 5.22987 5.74262 5.26094 5.85244C5.25612 5.87038 5.25 5.88744 5.25 5.90625V12.25C5.25 12.4911 5.05356 12.6875 4.8125 12.6875C4.57144 12.6875 4.375 12.4911 4.375 12.25V5.90625C4.375 5.88963 4.36888 5.87519 4.36581 5.85988C4.40081 5.74831 4.34262 5.628 4.23106 5.58862C3.53194 5.34231 3.0625 4.67863 3.0625 3.9375V1.09375C3.0625 0.973 2.9645 0.875 2.84375 0.875C2.723 0.875 2.625 0.973 2.625 1.09375V3.9375C2.625 4.80944 3.14825 5.5895 3.9375 5.93556V12.25C3.9375 12.7326 4.32994 13.125 4.8125 13.125C5.29506 13.125 5.6875 12.7326 5.6875 12.25V5.93556C6.47675 5.5895 7 4.80944 7 3.9375V1.09375C7 0.973 6.902 0.875 6.78125 0.875Z" fill="#0B1719"/>
<path d="M9.99775 0.875C9.55106 0.875 9.16344 1.19306 9.07594 1.63056L8.0885 6.56687C8.02419 6.88931 8.10688 7.2205 8.31513 7.47469C8.52338 7.72887 8.83181 7.875 9.16081 7.875H9.40625C9.527 7.875 9.625 7.777 9.625 7.65625C9.625 7.5355 9.527 7.4375 9.40625 7.4375H9.16081C8.9635 7.4375 8.77844 7.35 8.65331 7.19731C8.52819 7.04463 8.47875 6.84644 8.51725 6.65263L9.50425 1.71631C9.5515 1.48225 9.75888 1.3125 9.99775 1.3125C10.2747 1.3125 10.5 1.53781 10.5 1.81475V12.25C10.5 12.4911 10.3036 12.6875 10.0625 12.6875C9.82144 12.6875 9.625 12.4911 9.625 12.25V8.96875C9.625 8.848 9.527 8.75 9.40625 8.75C9.2855 8.75 9.1875 8.848 9.1875 8.96875V12.25C9.1875 12.7326 9.57994 13.125 10.0625 13.125C10.5451 13.125 10.9375 12.7326 10.9375 12.25V1.81475C10.9375 1.29675 10.5158 0.875 9.99775 0.875Z" fill="#0B1719"/>
</svg>
