<svg width="14" height="10" viewBox="0 0 14 10" fill="none" xmlns="http://www.w3.org/2000/svg">
<path d="M10.2096 4.3031C11.1839 4.3031 11.9738 3.51326 11.9738 2.53894C11.9738 1.56462 11.1839 0.77478 10.2096 0.77478C9.23528 0.77478 8.44543 1.56462 8.44543 2.53894C8.44543 3.51326 9.23528 4.3031 10.2096 4.3031Z" fill="#AFAFAF"/>
<path d="M4.0259 5.64148C1.80245 5.64148 0 7.44393 0 9.66738H8.05179C8.05179 7.44393 6.24934 5.64148 4.0259 5.64148Z" fill="#AFAFAF"/>
<path d="M10.2096 5.5022C9.37875 5.5022 8.62238 5.81947 8.05402 6.33907C8.62206 7.02406 9.00017 7.83264 9.16164 8.69973H13.4071C13.4071 6.93377 11.9755 5.5022 10.2096 5.5022Z" fill="#AFAFAF"/>
<path d="M4.0259 4.44242C5.25263 4.44242 6.2471 3.44795 6.2471 2.22121C6.2471 0.994469 5.25263 0 4.0259 0C2.79916 0 1.80469 0.994469 1.80469 2.22121C1.80469 3.44795 2.79916 4.44242 4.0259 4.44242Z" fill="#AFAFAF"/>
</svg>
